<svg xmlns="http://www.w3.org/2000/svg" viewBox="0 0 566 167" width="566" height="167"><path data-wing-backing="true" fill="rgb(192,192,192)" d="M33.4 0.9L33.4 0.9Q34 0 36.7 0.9L40.3 2.1Q43 3 49.3 2.7L57.7 2.3Q64 2 64 2.9L64 4.1Q64 5 66.1 4.4L68.9 3.6Q71 3 71.9 4.5L73.1 6.5Q74 8 76.7 8.3L80.3 8.7Q83 9 82.7 9.6L82.3 10.4Q82 11 84.1 11.6L86.9 12.4Q89 13 88.7 13.9L88.3 15.1Q88 16 89.5 16L91.5 16Q93 16 93.6 16.9L94.4 18.1Q95 19 95.9 19L97.1 19Q98 19 98 19.9L98 21.1Q98 22 100.1 22.3L102.9 22.7Q105 23 106.2 24.5L107.8 26.5Q109 28 110.5 28.3L112.5 28.7Q114 29 114.3 29.9L114.7 31.1Q115 32 117.1 32L119.9 32Q122 32 122 33.2L122 34.8Q122 36 124.7 36.3L128.3 36.7Q131 37 131.3 37.6L131.7 38.4Q132 39 133.2 38.4L134.8 37.6Q136 37 136 37.9L136 39.1Q136 40 136.9 39.4L138.1 38.6Q139 38 141.1 38L143.9 38Q146 38 146 38.9L146 40.1Q146 41 146.9 40.7L148.1 40.3Q149 40 149 40.6L149 41.4Q149 42 150.8 42L153.2 42Q155 42 155.9 44.1L157.1 46.9Q158 49 158.9 48.1L160.1 46.9Q161 46 162.2 46L163.8 46Q165 46 164.7 46.6L164.3 47.4Q164 48 166.1 47.4L168.9 46.6Q171 46 171 47.5L171 49.5Q171 51 171.9 50.4L173.1 49.6Q174 49 174 49.6L174 50.4Q174 51 174.9 51.3L176.1 51.7Q177 52 177 51.4L177 50.6Q177 50 178.5 49.7L180.5 49.3Q182 49 182.3 50.2L182.7 51.8Q183 53 183 52.4L183 51.6Q183 51 184.5 50.4L186.5 49.6Q188 49 188 50.2L188 51.8Q188 53 188.6 53L189.4 53Q190 53 190.3 53.9L190.7 55.1Q191 56 191.9 54.8L193.1 53.2Q194 52 194.6 52L195.4 52Q196 52 196 52.9L196 54.1Q196 55 195.4 55.3L194.6 55.7Q194 56 195.2 56L196.8 56Q198 56 197.7 56.9L197.3 58.1Q197 59 198.2 59L199.8 59Q201 59 200.7 58.4L200.3 57.6Q200 57 201.5 56.4L203.5 55.6Q205 55 205 56.2L205 57.8Q205 59 206.2 59.3L207.8 59.7Q209 60 208.7 60.6L208.3 61.4Q208 62 211 61.1L215 59.9Q218 59 217.4 60.2L216.6 61.8Q216 63 217.8 63L220.2 63Q222 63 222.3 63.9L222.7 65.1Q223 66 223.9 66L225.1 66Q226 66 226.3 67.2L226.7 68.8Q227 70 230 70L234 70Q237 70 237 70.6L237 71.4Q237 72 237.9 72L239.1 72Q240 72 241.5 73.8L243.5 76.2Q245 78 245.9 78L247.1 78Q248 78 248 77.4L248 76.6Q248 76 249.2 75.4L250.8 74.6Q252 74 257.1 74.3L263.9 74.7Q269 75 272 73.8L276 72.2Q279 71 281.1 71L283.9 71Q286 71 285.4 71.9L284.6 73.1Q284 74 284.6 74.6L285.4 75.4Q286 76 296.8 75.7L311.2 75.3Q322 75 329.5 73.2L339.5 70.8Q347 69 353.6 66L362.4 62Q369 59 369.9 59L371.1 59Q372 59 371.4 61.1L370.6 63.9Q370 66 380.5 65.4L394.5 64.6Q405 64 411 62.2L419 59.8Q425 58 427.4 56.2L430.6 53.8Q433 52 437.8 50.8L444.2 49.2Q449 48 451.1 46.5L453.9 44.5Q456 43 456.9 43L458.1 43Q459 43 459 43.9L459 45.1Q459 46 455.4 49.6L450.6 54.4Q447 58 444.3 59.5L440.7 61.5Q438 63 438.9 63.6L440.1 64.4Q441 65 441.6 64.1L442.4 62.9Q443 62 443.9 62.3L445.1 62.7Q446 63 447.8 60.9L450.2 58.1Q452 56 452.9 56.3L454.1 56.7Q455 57 455.3 56.1L455.7 54.9Q456 54 457.2 54L458.8 54Q460 54 459.7 53.4L459.3 52.6Q459 52 459.3 51.4L459.7 50.6Q460 50 460.9 50.3L462.1 50.7Q463 51 463 50.1L463 48.9Q463 48 463.6 48.3L464.4 48.7Q465 49 464.7 49.6L464.3 50.4Q464 51 464.6 51L465.4 51Q466 51 468.1 48.6L470.9 45.4Q473 43 473.6 43L474.4 43Q475 43 474.7 43.9L474.3 45.1Q474 46 474.6 46.3L475.4 46.7Q476 47 478.1 44.3L480.9 40.7Q483 38 484.5 38.6L486.5 39.4Q488 40 487.7 39.4L487.3 38.6Q487 38 489.4 35.6L492.6 32.4Q495 30 495.6 30L496.4 30Q497 30 496.4 30.6L495.6 31.4Q495 32 495 32.9L495 34.1Q495 35 495.6 35.3L496.4 35.7Q497 36 497 35.4L497 34.6Q497 34 498.5 33.4L500.5 32.6Q502 32 502.9 30.8L504.1 29.2Q505 28 505.3 29.2L505.7 30.8Q506 32 506.6 32L507.4 32Q508 32 508 31.4L508 30.6Q508 30 509.2 29.7L510.8 29.3Q512 29 513.2 27.2L514.8 24.8Q516 23 516.9 23L518.1 23Q519 23 519 23.6L519 24.4Q519 25 518.1 25L516.9 25Q516 25 516.6 25.6L517.4 26.4Q518 27 519.2 26.1L520.8 24.9Q522 24 522.9 24.3L524.1 24.7Q525 25 524.7 24.4L524.3 23.6Q524 23 525.2 23.3L526.8 23.7Q528 24 528 22.8L528 21.2Q528 20 528.6 20L529.4 20Q530 20 529.7 21.2L529.3 22.8Q529 24 530.2 24L531.8 24Q533 24 532.7 23.4L532.3 22.6Q532 22 532.9 21.4L534.1 20.6Q535 20 535.6 20.3L536.4 20.7Q537 21 536.7 21.9L536.3 23.1Q536 24 536.6 24L537.4 24Q538 24 538.3 23.1L538.7 21.9Q539 21 540.5 21.9L542.5 23.1Q544 24 544.9 23.7L546.1 23.3Q547 23 547.3 22.1L547.7 20.9Q548 20 548.9 20.3L550.1 20.7Q551 21 550.7 20.4L550.3 19.6Q550 19 550.6 19L551.4 19Q552 19 552.3 19.9L552.7 21.1Q553 22 554.5 21.1L556.5 19.9Q558 19 558.3 19.6L558.7 20.4Q559 21 561.1 21.3L563.9 21.7Q566 22 564.8 22.9L563.2 24.1Q562 25 561.7 26.2L561.3 27.8Q561 29 558 30.2L554 31.8Q551 33 550.4 34.5L549.6 36.5Q549 38 548.1 37.7L546.9 37.3Q546 37 545.7 37.9L545.3 39.1Q545 40 542.9 40.3L540.1 40.7Q538 41 538.3 41.9L538.7 43.1Q539 44 535.7 44.9L531.3 46.1Q528 47 527.7 48.2L527.3 49.8Q527 51 524.9 51L522.1 51Q520 51 518.8 51.3L517.2 51.7Q516 52 515.4 52.9L514.6 54.1Q514 55 511.9 55L509.1 55Q507 55 507 56.2L507 57.8Q507 59 503.7 59L499.3 59Q496 59 495.4 60.2L494.6 61.8Q494 63 491.9 62.7L489.1 62.3Q487 62 486.1 62.3L484.9 62.7Q484 63 483.4 64.2L482.6 65.8Q482 67 479 66.7L475 66.3Q472 66 471.7 67.2L471.3 68.8Q471 70 467.7 70.3L463.3 70.7Q460 71 459.7 71.9L459.3 73.1Q459 74 456 73.7L452 73.3Q449 73 448.1 73.3L446.9 73.7Q446 74 445.7 74.9L445.3 76.1Q445 77 441.7 77.6L437.3 78.4Q434 79 430.4 81.1L425.6 83.9Q422 86 420.8 85.7L419.2 85.3Q418 85 418 85.9L418 87.1Q418 88 416.5 87.7L414.5 87.3Q413 87 413 87.9L413 89.1Q413 90 410.6 90.3L407.4 90.7Q405 91 404.1 91.9L402.9 93.1Q402 94 401.1 93.7L399.9 93.3Q399 93 397.5 94.8L395.5 97.2Q394 99 389.5 102L383.5 106Q379 109 377.5 111.1L375.5 113.9Q374 116 370.7 118.7L366.3 122.3Q363 125 353.1 130.1L339.9 136.9Q330 142 325.5 143.5L319.5 145.5Q315 147 296.1 151.8L270.9 158.2Q252 163 244.8 164.2L235.2 165.8Q228 167 223.8 166.4L218.2 165.6Q214 165 211.3 165L207.7 165Q205 165 204.1 165.6L202.9 166.4Q202 167 202.9 165.5L204.1 163.5Q205 162 203.2 163.2L200.8 164.8Q199 166 196 166.3L192 166.7Q189 167 185.4 167L180.6 167Q177 167 175.2 166.1L172.8 164.9Q171 164 169.8 164.6L168.2 165.4Q167 166 154.4 166.3L137.6 166.7Q125 167 121.4 167L116.6 167Q113 167 112.4 166.1L111.6 164.9Q111 164 110.1 164L108.9 164Q108 164 107.1 164.9L105.9 166.1Q105 167 102.3 167L98.7 167Q96 167 96 165.8L96 164.2Q96 163 99.3 160L103.7 156Q107 153 107.6 149.1L108.4 143.9Q109 140 112.3 135.5L116.7 129.5Q120 125 121.8 119.3L124.2 111.7Q126 106 121.8 105.1L116.2 103.9Q112 103 112 102.4L112 101.6Q112 101 110.2 100.4L107.8 99.6Q106 99 105.7 97.8L105.3 96.2Q105 95 103.8 94.7L102.2 94.3Q101 94 100.7 92.8L100.3 91.2Q100 90 99.1 90L97.9 90Q97 90 96.4 87.9L95.6 85.1Q95 83 93.8 82.1L92.2 80.9Q91 80 91 77.6L91 74.4Q91 72 90.7 71.1L90.3 69.9Q90 69 89.1 68.7L87.9 68.3Q87 68 86.7 65.3L86.3 61.7Q86 59 85.4 59L84.6 59Q84 59 83.1 57.5L81.9 55.5Q81 54 79.5 53.7L77.5 53.3Q76 53 74.5 51.5L72.5 49.5Q71 48 69.2 47.4L66.8 46.6Q65 46 64.4 44.8L63.6 43.2Q63 42 60.9 41.4L58.1 40.6Q56 40 55.7 39.1L55.3 37.9Q55 37 54.1 37.3L52.9 37.7Q52 38 49.9 36.5L47.1 34.5Q45 33 42.6 32.7L39.4 32.3Q37 32 35.5 31.1L33.5 29.9Q32 29 28.7 29L24.3 29Q21 29 21 28.4L21 27.6Q21 27 19.5 27.3L17.5 27.7Q16 28 14.5 27.1L12.5 25.9Q11 25 8 24.7L4 24.3Q1 24 0.7 23.1L0.3 21.9Q0 21 0.6 20.4L1.4 19.6Q2 19 1.4 18.1L0.6 16.9Q0 16 0.6 16.3L1.4 16.7Q2 17 2.6 15.2L3.4 12.8Q4 11 8.8 9.8L15.2 8.2Q20 7 20.3 6.1L20.7 4.9Q21 4 22.5 3.4L24.5 2.6Q26 2 27.8 2.3L30.2 2.7Q32 3 32.6 2.1ZM541.6 20.6L541.6 20.6Q541 20 541.6 20L542.4 20Q543 20 543 20.6L543 21.4Q543 22 542.4 21.4ZM146.6 37.6L146.6 37.6Q146 37 146.6 37L147.4 37Q148 37 148 37.6L148 38.4Q148 39 147.4 38.4ZM298.3 88.3L298.3 88.3Q298 88 297.4 88.3L296.6 88.7Q296 89 296.3 89.3L296.7 89.7Q297 90 297.6 89.7L298.4 89.3Q299 89 298.7 88.7ZM152.6 103L152.6 103Q152 103 151.7 103.3L151.3 103.7Q151 104 151.6 104L152.4 104Q153 104 153.3 103.7L153.7 103.3Q154 103 153.4 103ZM148.2 104L148.2 104Q147 104 146.7 104.3L146.3 104.7Q146 105 147.2 105L148.8 105Q150 105 150.3 104.7L150.7 104.3Q151 104 149.8 104ZM142.9 105L142.9 105Q142 105 141.7 105.3L141.3 105.7Q141 106 141.9 106L143.1 106Q144 106 144.3 105.7L144.7 105.3Q145 105 144.1 105ZM132.4 106L132.4 106Q130 106 129.7 106.3L129.3 106.7Q129 107 131.4 107L134.6 107Q137 107 137.3 106.7L137.7 106.3Q138 106 135.6 106ZM177.9 159L177.9 159Q177 159 176.7 159.3L176.3 159.7Q176 160 176.9 160L178.1 160Q179 160 179.3 159.7L179.7 159.3Q180 159 179.1 159Z"/><path fill="rgb(128,128,128)" d="M25.4 3.2L25.4 3.2Q26 2 36.5 2L50.5 2Q61 2 61.6 2.9L62.4 4.1Q63 5 65.1 4.7L67.9 4.3Q70 4 71.2 5.2L72.8 6.8Q74 8 76.7 8.3L80.3 8.7Q83 9 82.7 9.6L82.3 10.4Q82 11 81.4 10.7L80.6 10.3Q80 10 80 10.6L80 11.4Q80 12 81.8 11.7L84.2 11.3Q86 11 86 11.6L86 12.4Q86 13 86.9 13L88.1 13Q89 13 88.7 13.9L88.3 15.1Q88 16 89.5 16L91.5 16Q93 16 93 16.9L93 18.1Q93 19 94.5 19L96.5 19Q98 19 97.7 19.6L97.3 20.4Q97 21 98.2 21.3L99.8 21.7Q101 22 102.8 23.8L105.2 26.2Q107 28 108.5 28L110.5 28Q112 28 112.3 28.9L112.7 30.1Q113 31 115.1 31.6L117.9 32.4Q120 33 121.5 34.2L123.5 35.8Q125 37 126.8 37L129.2 37Q131 37 131.3 37.6L131.7 38.4Q132 39 132.9 39L134.1 39Q135 39 135 39.6L135 40.4Q135 41 135.9 40.4L137.1 39.6Q138 39 139.2 39.6L140.8 40.4Q142 41 142.3 40.1L142.7 38.9Q143 38 143.9 38L145.1 38Q146 38 145.4 39.2L144.6 40.8Q144 42 144.9 41.7L146.1 41.3Q147 41 147.3 41.9L147.7 43.1Q148 44 150.1 44L152.9 44Q155 44 154.7 44.9L154.3 46.1Q154 47 154.9 46.7L156.1 46.3Q157 46 157.3 46.9L157.7 48.1Q158 49 158.9 48.1L160.1 46.9Q161 46 162.2 46L163.8 46Q165 46 164.4 47.2L163.6 48.8Q163 50 164.5 49.4L166.5 48.6Q168 48 168.6 49.2L169.4 50.8Q170 52 170.9 51.1L172.1 49.9Q173 49 173.6 49.9L174.4 51.1Q175 52 176.5 51.7L178.5 51.3Q180 51 179.7 51.9L179.3 53.1Q179 54 180.2 54L181.8 54Q183 54 183 53.1L183 51.9Q183 51 183.9 51L185.1 51Q186 51 186 52.2L186 53.8Q186 55 187.8 55.3L190.2 55.7Q192 56 192.6 55.4L193.4 54.6Q194 54 194 54.6L194 55.4Q194 56 195.2 56L196.8 56Q198 56 197.7 56.9L197.3 58.1Q197 59 198.2 59L199.8 59Q201 59 200.7 58.4L200.3 57.6Q200 57 200.9 56.7L202.1 56.3Q203 56 203 57.2L203 58.8Q203 60 203.9 59.7L205.1 59.3Q206 59 206.6 59.9L207.4 61.1Q208 62 210.4 61.7L213.6 61.3Q216 61 216 62.2L216 63.8Q216 65 217.5 65L219.5 65Q221 65 221 65.6L221 66.4Q221 67 222.5 66.7L224.5 66.3Q226 66 226.3 67.2L226.7 68.8Q227 70 230 70L234 70Q237 70 236.7 70.9L236.3 72.1Q236 73 237.2 73.3L238.8 73.7Q240 74 240.3 74.9L240.7 76.1Q241 77 244 77.3L248 77.7Q251 78 251.9 77.4L253.1 76.6Q254 76 254 77.5L254 79.5Q254 81 254.9 81L256.1 81Q257 81 257 81.9L257 83.1Q257 84 260 84L264 84Q267 84 269.1 85.2L271.9 86.8Q274 88 276.4 87.7L279.6 87.3Q282 87 282.3 87.9L282.7 89.1Q283 90 285.4 90L288.6 90Q291 90 291 90.6L291 91.4Q291 92 293.7 90.8L297.3 89.2Q300 88 300 88.6L300 89.4Q300 90 301.2 90L302.8 90Q304 90 303.7 90.9L303.3 92.1Q303 93 304.5 92.7L306.5 92.3Q308 92 308 92.9L308 94.1Q308 95 308.9 94.4L310.1 93.6Q311 93 311.6 93L312.4 93Q313 93 312.7 93.6L312.3 94.4Q312 95 312.9 95L314.1 95Q315 95 316.8 93.5L319.2 91.5Q321 90 322.8 90.9L325.2 92.1Q327 93 328.5 91.8L330.5 90.2Q332 89 332.3 89.9L332.7 91.1Q333 92 334.2 92.3L335.8 92.7Q337 93 337 92.4L337 91.6Q337 91 338.5 90.4L340.5 89.6Q342 89 342.3 87.8L342.7 86.2Q343 85 343.6 85.3L344.4 85.7Q345 86 344.7 87.2L344.3 88.8Q344 90 344.9 89.7L346.1 89.3Q347 89 347 89.6L347 90.4Q347 91 348.5 90.7L350.5 90.3Q352 90 352.3 89.1L352.7 87.9Q353 87 353.6 87L354.4 87Q355 87 355 87.9L355 89.1Q355 90 356.8 90L359.2 90Q361 90 361.6 88.5L362.4 86.5Q363 85 363.6 85L364.4 85Q365 85 364.7 85.9L364.3 87.1Q364 88 364.6 88.3L365.4 88.7Q366 89 366.6 87.2L367.4 84.8Q368 83 368.6 83L369.4 83Q370 83 370 84.2L370 85.8Q370 87 370.6 87L371.4 87Q372 87 372.3 86.4L372.7 85.6Q373 85 375.1 85L377.9 85Q380 85 380.9 84.1L382.1 82.9Q383 82 384.5 82L386.5 82Q388 82 388.9 80.5L390.1 78.5Q391 77 391.6 77.9L392.4 79.1Q393 80 393.9 80L395.1 80Q396 80 396.3 79.4L396.7 78.6Q397 78 397.9 78.3L399.1 78.7Q400 79 400.6 78.1L401.4 76.9Q402 76 403.5 76L405.5 76Q407 76 407 75.4L407 74.6Q407 74 408.2 74.3L409.8 74.7Q411 75 412.2 72.9L413.8 70.1Q415 68 415 69.5L415 71.5Q415 73 415.6 73L416.4 73Q417 73 418.5 72.7L420.5 72.3Q422 72 422.3 71.4L422.7 70.6Q423 70 423.9 70.3L425.1 70.7Q426 71 427.2 69.8L428.8 68.2Q430 67 431.2 67.3L432.8 67.7Q434 68 434.3 67.4L434.7 66.6Q435 66 437.7 65.7L441.3 65.3Q444 65 446.4 62.3L449.6 58.7Q452 56 453.5 56.3L455.5 56.7Q457 57 457.9 56.4L459.1 55.6Q460 55 460 53.5L460 51.5Q460 50 460.9 50.3L462.1 50.7Q463 51 463 51.6L463 52.4Q463 53 463.9 53L465.1 53Q466 53 466 52.1L466 50.9Q466 50 466.9 50L468.1 50Q469 50 469.6 48.5L470.4 46.5Q471 45 472.5 45.6L474.5 46.4Q476 47 476 46.4L476 45.6Q476 45 477.8 43.5L480.2 41.5Q482 40 482.3 40.6L482.7 41.4Q483 42 484.2 41.7L485.8 41.3Q487 41 487 40.1L487 38.9Q487 38 489.1 35.9L491.9 33.1Q494 31 494 32.5L494 34.5Q494 36 494.9 36L496.1 36Q497 36 497 35.4L497 34.6Q497 34 498.5 33.1L500.5 31.9Q502 31 502.6 31.6L503.4 32.4Q504 33 505.2 32.7L506.8 32.3Q508 32 508 31.4L508 30.6Q508 30 509.2 29.7L510.8 29.3Q512 29 512.6 28.1L513.4 26.9Q514 26 515.8 26.6L518.2 27.4Q520 28 521.5 27.1L523.5 25.9Q525 25 524.7 24.4L524.3 23.6Q524 23 524.9 23L526.1 23Q527 23 527 23.9L527 25.1Q527 26 527.9 26L529.1 26Q530 26 531.5 24.2L533.5 21.8Q535 20 535.6 20.3L536.4 20.7Q537 21 536.7 21.9L536.3 23.1Q536 24 536.6 24L537.4 24Q538 24 538.3 23.1L538.7 21.9Q539 21 540.5 21.9L542.5 23.1Q544 24 544.9 23.7L546.1 23.3Q547 23 547.3 22.1L547.7 20.9Q548 20 550.1 20.6L552.9 21.4Q555 22 555.3 21.1L555.7 19.9Q556 19 556.6 19L557.4 19Q558 19 558 19.9L558 21.1Q558 22 559.5 22L561.5 22Q563 22 563.3 22.9L563.7 24.1Q564 25 563.4 25L562.6 25Q562 25 562 25.6L562 26.4Q562 27 560.2 28.5L557.8 30.5Q556 32 554.5 32.3L552.5 32.7Q551 33 551 33.9L551 35.1Q551 36 550.1 36.6L548.9 37.4Q548 38 547.4 37.7L546.6 37.3Q546 37 545.7 37.9L545.3 39.1Q545 40 542.9 40.3L540.1 40.7Q538 41 538.3 41.9L538.7 43.1Q539 44 538.4 44.3L537.6 44.7Q537 45 534.3 45.6L530.7 46.4Q528 47 527.7 48.2L527.3 49.8Q527 51 524.6 50.7L521.4 50.3Q519 50 518.1 50.3L516.9 50.7Q516 51 515.4 52.2L514.6 53.8Q514 55 511.9 55L509.1 55Q507 55 507 56.2L507 57.8Q507 59 503.7 59L499.3 59Q496 59 495.4 60.2L494.6 61.8Q494 63 491.3 62.7L487.7 62.3Q485 62 484.1 63.5L482.9 65.5Q482 67 479 66.7L475 66.3Q472 66 471.7 67.2L471.3 68.8Q471 70 467.7 70.3L463.3 70.7Q460 71 459.7 71.9L459.3 73.1Q459 74 456 73.7L452 73.3Q449 73 446.6 73.9L443.4 75.1Q441 76 440.4 76.9L439.6 78.1Q439 79 437.5 79L435.5 79Q434 79 433.1 79.9L431.9 81.1Q431 82 430.4 81.7L429.6 81.3Q429 81 427.5 82.2L425.5 83.8Q424 85 423.1 84.7L421.9 84.3Q421 84 418.6 84.9L415.4 86.1Q413 87 412.4 87.9L411.6 89.1Q411 90 409.2 90.3L406.8 90.7Q405 91 404.1 91.9L402.9 93.1Q402 94 401.1 93.7L399.9 93.3Q399 93 397.8 94.2L396.2 95.8Q395 97 393.8 97L392.2 97Q391 97 389.2 98.2L386.8 99.8Q385 101 374.8 104L361.2 108Q351 111 341.7 112.5L329.3 114.5Q320 116 309.5 116.3L295.5 116.7Q285 117 278.7 116.4L270.3 115.6Q264 115 253.8 112.9L240.2 110.1Q230 108 221.6 108.3L210.4 108.7Q202 109 202 110.2L202 111.8Q202 113 202.9 113.6L204.1 114.4Q205 115 206.2 119.2L207.8 124.8Q209 129 210.8 130.8L213.2 133.2Q215 135 215.3 136.8L215.7 139.2Q216 141 214.8 142.2L213.2 143.8Q212 145 210.2 149.5L207.8 155.5Q206 160 204.8 161.5L203.2 163.5Q202 165 194.5 165.6L184.5 166.4Q177 167 176.4 166.1L175.6 164.9Q175 164 173.8 164.3L172.2 164.7Q171 165 171.3 163.2L171.7 160.8Q172 159 170.2 159.9L167.8 161.1Q166 162 163.3 161.7L159.7 161.3Q157 161 157.3 159.8L157.7 158.2Q158 157 161.3 154.3L165.7 150.7Q169 148 170.5 145.3L172.5 141.7Q174 139 176.4 138.4L179.6 137.6Q182 137 183.5 135.5L185.5 133.5Q187 132 186.4 130.8L185.6 129.2Q185 128 182 126.2L178 123.8Q175 122 172.9 119.9L170.1 117.1Q168 115 167.1 113.2L165.9 110.8Q165 109 165 106.9L165 104.1Q165 102 164.1 101.7L162.9 101.3Q162 101 155.7 102.5L147.3 104.5Q141 106 136.2 106L129.8 106Q125 106 121.1 105.1L115.9 103.9Q112 103 112 102.4L112 101.6Q112 101 110.2 100.4L107.8 99.6Q106 99 105.7 97.8L105.3 96.2Q105 95 103.8 94.7L102.2 94.3Q101 94 100.7 92.8L100.3 91.2Q100 90 99.1 90L97.9 90Q97 90 96.4 87.9L95.6 85.1Q95 83 94.1 82.4L92.9 81.6Q92 81 91.4 77.4L90.6 72.6Q90 69 89.1 68.7L87.9 68.3Q87 68 86.7 65.3L86.3 61.7Q86 59 85.4 59L84.6 59Q84 59 83.1 57.5L81.9 55.5Q81 54 78.9 53.4L76.1 52.6Q74 52 73.1 50.8L71.9 49.2Q71 48 69.2 47.4L66.8 46.6Q65 46 64.4 44.8L63.6 43.2Q63 42 60.9 41.4L58.1 40.6Q56 40 55.7 39.1L55.3 37.9Q55 37 54.1 37.3L52.9 37.7Q52 38 49.9 36.5L47.1 34.5Q45 33 42.6 32.7L39.4 32.3Q37 32 35.5 31.1L33.5 29.9Q32 29 31.1 29.3L29.9 29.7Q29 30 28.7 29.4L28.3 28.6Q28 28 25.9 28.3L23.1 28.7Q21 29 21 28.4L21 27.6Q21 27 19.5 27.3L17.5 27.7Q16 28 14.5 27.1L12.5 25.9Q11 25 8 24.7L4 24.3Q1 24 0.7 23.1L0.3 21.9Q0 21 0.6 20.7L1.4 20.3Q2 20 2 17.9L2 15.1Q2 13 2.6 12.4L3.4 11.6Q4 11 8.2 10.4L13.8 9.6Q18 9 18.6 8.1L19.4 6.9Q20 6 21.2 6L22.8 6Q24 6 24.6 4.8ZM199.3 141.1L199.3 141.1Q199 139 195.1 140.8L189.9 143.2Q186 145 185.7 146.5L185.3 148.5Q185 150 183.2 151.5L180.8 153.5Q179 155 179 155.6L179 156.4Q179 157 177.8 157.3L176.2 157.7Q175 158 175.3 158.6L175.7 159.4Q176 160 180.2 159.4L185.8 158.6Q190 158 193 154.4L197 149.6Q200 146 199.7 143.9Z"/><path fill="rgb(192,192,192)" d="M34 0.6L34 0.6Q34 0 36.7 0.9L40.3 2.1Q43 3 40.3 2.7L36.7 2.3Q34 2 34 1.4ZM62.6 2.9L62.6 2.9Q62 2 62.6 2L63.4 2Q64 2 64 2.9L64 4.1Q64 5 63.4 4.1ZM22.4 3.9L22.4 3.9Q23 3 23.6 3L24.4 3Q25 3 24.4 3.9L23.6 5.1Q23 6 22.4 6L21.6 6Q21 6 21.6 5.1ZM69.2 3.6L69.2 3.6Q68 3 68.9 3L70.1 3Q71 3 71.3 3.6L71.7 4.4Q72 5 70.8 4.4ZM14.1 7.9L14.1 7.9Q15 7 16.2 7L17.8 7Q19 7 18.7 7.6L18.3 8.4Q18 9 17.1 9L15.9 9Q15 9 14.1 9.3L12.9 9.7Q12 10 12.9 9.1ZM80 10.6L80 10.6Q80 10 80.9 10.6L82.1 11.4Q83 12 82.1 12L80.9 12Q80 12 80 11.4ZM93 17.6L93 17.6Q93 17 93.6 17.6L94.4 18.4Q95 19 94.4 19L93.6 19Q93 19 93 18.4ZM550.6 19.6L550.6 19.6Q550 19 550.6 19L551.4 19Q552 19 552 19.6L552 20.4Q552 21 551.4 20.4ZM527.7 21.8L527.7 21.8Q528 20 528.6 20L529.4 20Q530 20 529.7 21.2L529.3 22.8Q529 24 529.9 23.7L531.1 23.3Q532 23 531.7 23.6L531.3 24.4Q531 25 529.8 25.3L528.2 25.7Q527 26 527.3 24.2ZM541.6 20.6L541.6 20.6Q541 20 541.6 20L542.4 20Q543 20 543 20.6L543 21.4Q543 22 542.4 21.4ZM558 20.6L558 20.6Q558 20 560.1 20.3L562.9 20.7Q565 21 565 21.6L565 22.4Q565 23 562.9 22.7L560.1 22.3Q558 22 558 21.4ZM103.4 23.8L103.4 23.8Q101 22 102.2 22.3L103.8 22.7Q105 23 106.2 24.5L107.8 26.5Q109 28 106.6 26.2ZM514.8 24.5L514.8 24.5Q516 23 516.9 23L518.1 23Q519 23 519 23.6L519 24.4Q519 25 517.5 25.6L515.5 26.4Q514 27 513.4 27.3L512.6 27.7Q512 28 513.2 26.5ZM520.8 24.6L520.8 24.6Q522 24 522.6 24L523.4 24Q524 24 524 24.6L524 25.4Q524 26 522.8 26.6L521.2 27.4Q520 28 519.4 28L518.6 28Q518 28 518 27.4L518 26.6Q518 26 519.2 25.4ZM504.4 28.3L504.4 28.3Q505 28 505.3 29.5L505.7 31.5Q506 33 505.7 32.7L505.3 32.3Q505 32 504.4 32L503.6 32Q503 32 503 31.1L503 29.9Q503 29 503.6 28.7ZM495 30.6L495 30.6Q495 30 495.6 30L496.4 30Q497 30 496.7 30.3L496.3 30.7Q496 31 495.7 31.3L495.3 31.7Q495 32 495 31.4ZM116.3 31.6L116.3 31.6Q116 31 117.8 31.3L120.2 31.7Q122 32 122 32.6L122 33.4Q122 34 120.5 33.7L118.5 33.3Q117 33 116.7 32.4ZM494 34.6L494 34.6Q494 34 494.6 34.6L495.4 35.4Q496 36 495.4 36L494.6 36Q494 36 494 35.4ZM133.7 37.6L133.7 37.6Q134 37 134.6 37L135.4 37Q136 37 136 38.2L136 39.8Q136 41 135.1 40.4L133.9 39.6Q133 39 133.3 38.4ZM146.6 37.6L146.6 37.6Q146 37 146.6 37L147.4 37Q148 37 148 37.6L148 38.4Q148 39 147.4 38.4ZM139.3 38.9L139.3 38.9Q139 38 140.2 38.3L141.8 38.7Q143 39 142.7 39.3L142.3 39.7Q142 40 141.4 40.3L140.6 40.7Q140 41 139.7 40.1ZM482.1 39.2L482.1 39.2Q483 38 484.2 38.3L485.8 38.7Q487 39 487 39.6L487 40.4Q487 41 485.8 41L484.2 41Q483 41 482.1 41.3L480.9 41.7Q480 42 480.9 40.8ZM144 40.6L144 40.6Q144 40 144.6 40L145.4 40Q146 40 146 40.6L146 41.4Q146 42 145.4 42L144.6 42Q144 42 144 41.4ZM147.3 41.2L147.3 41.2Q147 40 147.6 40L148.4 40Q149 40 149 40.6L149 41.4Q149 42 150.8 42L153.2 42Q155 42 154.7 42.6L154.3 43.4Q154 44 152.2 44L149.8 44Q148 44 147.7 42.8ZM453.9 44.5L453.9 44.5Q456 43 456.9 43L458.1 43Q459 43 459 43.9L459 45.1Q459 46 455.4 49.6L450.6 54.4Q447 58 444.3 59.5L440.7 61.5Q438 63 438.6 63.9L439.4 65.1Q440 66 438.5 66L436.5 66Q435 66 434.7 66.6L434.3 67.4Q434 68 432.8 67.7L431.2 67.3Q430 67 428.8 68.2L427.2 69.8Q426 71 425.1 70.7L423.9 70.3Q423 70 422.7 70.6L422.3 71.4Q422 72 420.5 72.3L418.5 72.7Q417 73 416.4 73L415.6 73Q415 73 415 71.5L415 69.5Q415 68 413.8 70.1L412.2 72.9Q411 75 409.8 74.7L408.2 74.3Q407 74 407 74.6L407 75.4Q407 76 405.5 76L403.5 76Q402 76 401.4 76.9L400.6 78.1Q400 79 399.1 78.7L397.9 78.3Q397 78 396.7 78.6L396.3 79.4Q396 80 395.1 80L393.9 80Q393 80 392.4 79.1L391.6 77.9Q391 77 390.1 78.5L388.9 80.5Q388 82 386.5 82L384.5 82Q383 82 382.1 82.9L380.9 84.1Q380 85 377.9 85L375.1 85Q373 85 372.7 85.6L372.3 86.4Q372 87 371.4 87L370.6 87Q370 87 370 85.8L370 84.2Q370 83 369.4 83L368.6 83Q368 83 367.4 84.8L366.6 87.2Q366 89 365.7 87.8L365.3 86.2Q365 85 364.4 85L363.6 85Q363 85 362.4 86.5L361.6 88.5Q361 90 359.2 90L356.8 90Q355 90 355 89.1L355 87.9Q355 87 354.4 87L353.6 87Q353 87 352.7 87.9L352.3 89.1Q352 90 350.5 90.3L348.5 90.7Q347 91 347 90.4L347 89.6Q347 89 346.1 89.3L344.9 89.7Q344 90 344.3 88.8L344.7 87.2Q345 86 344.4 85.7L343.6 85.3Q343 85 342.7 86.2L342.3 87.8Q342 89 340.5 89.6L338.5 90.4Q337 91 337 91.6L337 92.4Q337 93 335.8 92.7L334.2 92.3Q333 92 332.7 91.1L332.3 89.9Q332 89 330.5 90.2L328.5 91.8Q327 93 325.2 92.1L322.8 90.9Q321 90 319.2 91.5L316.8 93.5Q315 95 314.1 95L312.9 95Q312 95 312.3 94.4L312.7 93.6Q313 93 311.5 93.6L309.5 94.4Q308 95 308 94.1L308 92.9Q308 92 306.5 92.3L304.5 92.7Q303 93 303.3 92.1L303.7 90.9Q304 90 302.8 90L301.2 90Q300 90 300 89.4L300 88.6Q300 88 299.1 88L297.9 88Q297 88 295.5 89.2L293.5 90.8Q292 92 291.7 91.4L291.3 90.6Q291 90 288.9 90L286.1 90Q284 90 283.1 88.8L281.9 87.2Q281 86 280.4 86L279.6 86Q279 86 279 86.6L279 87.4Q279 88 277.5 88L275.5 88Q274 88 271.9 86.8L269.1 85.2Q267 84 264 84L260 84Q257 84 257 83.1L257 81.9Q257 81 256.1 81L254.9 81Q254 81 254 79.5L254 77.5Q254 76 253.1 76.6L251.9 77.4Q251 78 250.1 78L248.9 78Q248 78 248 77.4L248 76.6Q248 76 249.2 75.4L250.8 74.6Q252 74 257.1 74.3L263.9 74.7Q269 75 272 73.8L276 72.2Q279 71 281.1 71L283.9 71Q286 71 285.4 71.9L284.6 73.1Q284 74 284.6 74.6L285.4 75.4Q286 76 296.8 75.7L311.2 75.3Q322 75 329.5 73.2L339.5 70.8Q347 69 353.6 66L362.4 62Q369 59 369.9 59L371.1 59Q372 59 371.4 61.1L370.6 63.9Q370 66 380.5 65.4L394.5 64.6Q405 64 411 62.2L419 59.8Q425 58 427.4 56.2L430.6 53.8Q433 52 437.8 50.8L444.2 49.2Q449 48 451.1 46.5ZM472.7 43.9L472.7 43.9Q473 43 473.6 43L474.4 43Q475 43 475 44.2L475 45.8Q475 47 474.1 46.7L472.9 46.3Q472 46 472.3 45.1ZM166.7 46.6L166.7 46.6Q167 46 168.2 46L169.8 46Q171 46 171 47.8L171 50.2Q171 52 170.4 51.1L169.6 49.9Q169 49 168.1 48.7L166.9 48.3Q166 48 165.1 48.6L163.9 49.4Q163 50 163 49.4L163 48.6Q163 48 163.9 48L165.1 48Q166 48 166.3 47.4ZM463 49.5L463 49.5Q463 48 463.9 49.2L465.1 50.8Q466 52 465.1 52.3L463.9 52.7Q463 53 463 51.5ZM467.7 48.6L467.7 48.6Q468 48 468.6 48L469.4 48Q470 48 469.7 48.6L469.3 49.4Q469 50 468.4 50L467.6 50Q467 50 467.3 49.4ZM178.4 49.6L178.4 49.6Q179 49 179.9 49L181.1 49Q182 49 182.3 49.9L182.7 51.1Q183 52 183 52.6L183 53.4Q183 54 182.1 54L180.9 54Q180 54 180 53.1L180 51.9Q180 51 179.1 51L177.9 51Q177 51 177.6 50.4ZM186 50.8L186 50.8Q186 49 186.9 49.3L188.1 49.7Q189 50 188.7 50.9L188.3 52.1Q188 53 188.9 53.6L190.1 54.4Q191 55 189.5 55L187.5 55Q186 55 186 53.2ZM517.8 50.6L517.8 50.6Q519 50 519.3 50.6L519.7 51.4Q520 52 518.8 52L517.2 52Q516 52 516 52.6L516 53.4Q516 54 515.7 53.4L515.3 52.6Q515 52 516.2 51.4ZM193.4 52.6L193.4 52.6Q194 52 194.6 52L195.4 52Q196 52 196 52.9L196 54.1Q196 55 195.4 55L194.6 55Q194 55 193.4 54.7L192.6 54.3Q192 54 192.6 53.4ZM457.1 53.6L457.1 53.6Q458 53 458.6 53.6L459.4 54.4Q460 55 459.1 55.6L457.9 56.4Q457 57 456.4 57L455.6 57Q455 57 455 56.4L455 55.6Q455 55 455.9 54.4ZM203 56.5L203 56.5Q203 55 203.6 55L204.4 55Q205 55 204.7 56.2L204.3 57.8Q204 59 203.7 59.3L203.3 59.7Q203 60 203 58.5ZM213.7 59.6L213.7 59.6Q214 59 215.2 59L216.8 59Q218 59 217.7 59.6L217.3 60.4Q217 61 215.8 61L214.2 61Q213 61 213.3 60.4ZM442.4 62.9L442.4 62.9Q443 62 443.6 62L444.4 62Q445 62 444.4 62.9L443.6 64.1Q443 65 442.4 65L441.6 65Q441 65 441.6 64.1ZM216 63.6L216 63.6Q216 63 217.8 63L220.2 63Q222 63 222.3 64.2L222.7 65.8Q223 67 222.4 67L221.6 67Q221 67 221 66.4L221 65.6Q221 65 219.5 65L217.5 65Q216 65 216 64.4ZM238.2 73.5L238.2 73.5Q237 72 237.9 72L239.1 72Q240 72 240.3 72.9L240.7 74.1Q241 75 242.2 75.6L243.8 76.4Q245 77 243.8 77L242.2 77Q241 77 239.8 75.5ZM442.1 75.6L442.1 75.6Q443 75 443.6 75L444.4 75Q445 75 445 75.6L445 76.4Q445 77 444.1 77.3L442.9 77.7Q442 78 441.4 77.7L440.6 77.3Q440 77 440.9 76.4ZM416 86.6L416 86.6Q416 86 416.6 86L417.4 86Q418 86 418 86.6L418 87.4Q418 88 417.4 88L416.6 88Q416 88 416 87.4ZM389.2 98.2L389.2 98.2Q391 97 391.9 97L393.1 97Q394 97 394 97.6L394 98.4Q394 99 389.5 102L383.5 106Q379 109 377.5 111.1L375.5 113.9Q374 116 370.7 118.7L366.3 122.3Q363 125 353.1 130.1L339.9 136.9Q330 142 325.5 143.5L319.5 145.5Q315 147 296.1 151.8L270.9 158.2Q252 163 244.8 164.2L235.2 165.8Q228 167 223.8 166.4L218.2 165.6Q214 165 211.3 165L207.7 165Q205 165 204.1 165.6L202.9 166.4Q202 167 202.9 166.1L204.1 164.9Q205 164 205.9 161.3L207.1 157.7Q208 155 209.2 152L210.8 148Q212 145 213.2 143.8L214.8 142.2Q216 141 216 139.8L216 138.2Q216 137 214.2 135.2L211.8 132.8Q210 131 209.4 127.7L208.6 123.3Q208 120 206.2 117.9L203.8 115.1Q202 113 202 111.8L202 110.2Q202 109 210.4 108.7L221.6 108.3Q230 108 239.6 110.1L252.4 112.9Q262 115 275.8 115.6L294.2 116.4Q308 117 320.9 115.2L338.1 112.8Q351 111 361.2 108L374.8 104Q385 101 386.8 99.8ZM154.8 102.8L154.8 102.8Q162 101 162.9 101.3L164.1 101.7Q165 102 165 104.1L165 106.9Q165 109 165.9 110.8L167.1 113.2Q168 115 173.1 119.2L179.9 124.8Q185 129 185.3 130.5L185.7 132.5Q186 134 184.2 135.2L181.8 136.8Q180 138 178.2 138.3L175.8 138.7Q174 139 172.5 141.7L170.5 145.3Q169 148 165.4 151.3L160.6 155.7Q157 159 157 160.2L157 161.8Q157 163 157.6 162.4L158.4 161.6Q159 161 161.1 161.3L163.9 161.7Q166 162 167.8 161.1L170.2 159.9Q172 159 172 160.5L172 162.5Q172 164 170.5 164.6L168.5 165.4Q167 166 157.4 166L144.6 166Q135 166 128.4 166.3L119.6 166.7Q113 167 112.4 166.1L111.6 164.9Q111 164 110.1 164L108.9 164Q108 164 107.1 164.9L105.9 166.1Q105 167 102.3 167L98.7 167Q96 167 96 165.8L96 164.2Q96 163 99 160.6L103 157.4Q106 155 106.9 150.5L108.1 144.5Q109 140 112.3 135.5L116.7 129.5Q120 125 121.8 119.3L124.2 111.7Q126 106 129.6 106.3L134.4 106.7Q138 107 145.2 105.2ZM194.4 140.8L194.4 140.8Q198 139 198.6 139L199.4 139Q200 139 200 141.1L200 143.9Q200 146 197 149.6L193 154.4Q190 158 186.1 158.3L180.9 158.7Q177 159 176.4 159.3L175.6 159.7Q175 160 175 159.4L175 158.6Q175 158 176.2 157.7L177.8 157.3Q179 157 179 156.4L179 155.6Q179 155 180.8 153.5L183.2 151.5Q185 150 185.3 148.5L185.7 146.5Q186 145 189.6 143.2ZM173 164.6L173 164.6Q173 164 173.6 164L174.4 164Q175 164 175 164.6L175 165.4Q175 166 174.4 166L173.6 166Q173 166 173 165.4Z"/></svg>
